<svg version="1.2" xmlns="http://www.w3.org/2000/svg" viewBox="0 0 512 512" width="512" height="512"><style>.a{fill:#4d6bf3;stroke:#4d6bf3;stroke-miterlimit:100;stroke-width:14}.b{fill:#0a30e0;stroke:#0a30e0;stroke-miterlimit:100;stroke-width:14}.c{fill:#0a30e0}</style><path class="a" d="m243 126.9c-90.7 24.2-131.1 81.9-108.1 154.6 14.3 45.4 64 58.4 94.4 50.3 71.5-19.1 54.7-74.9 54-77.3l-14.6 3.5c0.1 0.4 9 35.7-46.8 50.6-26.2 7-64.4-5.3-72.5-31-18.1-57.2 20.6-106.1 100.9-127.5 105.5-28.1 189.5 3.8 214 81.3 25.7 81.2-23.8 194.9-166 245.5l8 23c152.6-54.3 202.3-178.1 172.5-272.4-29-91.6-121.5-131.1-235.8-100.6z"/><path class="b" d="m351.8 266.8c-7.2-47.6-51.2-67.7-80.2-64-68.4 8.9-60.3 67.4-60 69.9l13.9-1.5c0-0.3-3.6-37.1 49.8-44 25-3.3 58.6 14.5 62.7 41.4 9 60.1-33 103.5-109.8 113.5-100.8 13.2-173.9-30.9-186.2-112.2-12.9-85.1 47.6-192.1 185.2-222.5l-4.3-24.2c-147.6 32.6-209.7 149.7-194.7 248.5 14.5 96.1 94.5 149 203.7 134.8 86.6-11.3 131.4-63.5 119.9-139.7z"/><path class="c" d="m248.6 11.9l39.8-1.9 1.9 39.9-39.8 1.9zm58.1 2.9l37.1 3.8-3.8 37.2-37.2-3.9zm57.7 9.3l36 9.7-9.7 36.1-36.1-9.8z"/></svg>