<svg version="1.2" xmlns="http://www.w3.org/2000/svg" viewBox="0 0 512 512" width="512" height="512"><style>.a{fill:#4d6bf3;stroke:#4d6bf3;paint-order:stroke fill markers;stroke-miterlimit:100;stroke-width:16}.b{fill:#0a30e0;stroke:#0a30e0;paint-order:stroke fill markers;stroke-miterlimit:100;stroke-width:16}.c{fill:#0a30e0}</style><path class="a" d="m241.5 127.5c-90.4 24.1-130.8 81.8-107.8 154.2 14.3 45.4 63.8 58.3 94.1 50.2 71.4-19 54.7-74.7 53.9-77.1l-14.5 3.5c0.1 0.4 9 35.6-46.7 50.5-26.2 7-64.3-5.3-72.4-30.9-18.1-57.1 20.5-105.9 100.7-127.2 105.3-28.1 189.1 3.7 213.6 81.1 25.6 81-23.8 194.4-165.7 244.9l8 22.9c152.2-54.1 201.8-177.6 172.1-271.7-28.9-91.4-121.3-130.8-235.3-100.4z"/><path class="b" d="m350.1 267.1c-7.2-47.5-51.1-67.6-80-63.8-68.3 8.9-60.2 67.2-59.9 69.6l13.9-1.4c-0.1-0.3-3.6-37 49.6-43.9 25-3.3 58.5 14.4 62.6 41.3 9 59.9-32.9 103.3-109.5 113.3-100.6 13.1-173.6-30.9-185.8-112-12.9-85 47.5-191.7 184.8-222.1l-4.3-24.1c-147.3 32.5-209.3 149.4-194.3 248 14.5 95.9 94.3 148.6 203.2 134.5 86.5-11.3 131.2-63.4 119.7-139.4z"/><path class="c" d="m248.6 11.9l39.8-1.9 1.9 39.9-39.8 1.9zm58.1 2.9l37.1 3.8-3.8 37.2-37.2-3.9zm57.7 9.3l36 9.7-9.7 36.1-36.1-9.8z"/></svg>