<svg version="1.2" xmlns="http://www.w3.org/2000/svg" viewBox="0 0 512 512" width="512" height="512"><style>.a{fill:#3354ea;stroke:#3354ea;paint-order:stroke fill markers;stroke-linejoin:round;stroke-width:10}.b{fill:#09239d;stroke:#09239d;paint-order:stroke fill markers;stroke-linejoin:round;stroke-width:10}.c{fill:#09239d}</style><path class="a" d="m463.8 217c26.8 84.9-17.9 196.4-155.4 245.3l-7.2-20.7c128.1-45.6 172.7-147.9 149.5-221.1-22-69.8-97.7-98.5-192.7-73.2-72.4 19.3-107.2 63.3-90.9 114.9 7.3 23.1 41.7 34.1 65.3 27.8 50.3-13.4 42.3-45.2 42.2-45.5l13.1-3.2c0.7 2.2 15.8 52.5-48.6 69.6-27.4 7.3-72.1-4.4-85-45.3-20.7-65.4 15.7-117.4 97.3-139.2 102.9-27.4 186.3 8.2 212.4 90.6z"/><path class="b" d="m241.4 378.2c-98.3 12.8-170.4-34.8-183.4-121.3-13.5-89 42.4-194.5 175.3-223.9l3.9 21.8c-123.9 27.4-178.4 123.7-166.8 200.4 11.1 73.2 76.9 112.9 167.7 101.1 69.2-9 107-48.2 98.8-102.2-3.6-24.3-33.8-40.3-56.4-37.4-48 6.3-44.8 39.4-44.8 39.7l-12.5 1.3c-0.3-2.2-7.6-54.9 54-62.9 26.1-3.4 65.7 14.7 72.2 57.6 10.4 68.6-30 115.6-108 125.8z"/><path class="c" d="m258.7 26.7l31.1-3.7 3.7 31.1-31.1 3.6zm45.6-0.8l29.3 1-1 29.3-29.3-1zm45.6 4.1l28.8 5.7-5.7 28.8-28.8-5.7z"/></svg>